<?xml version="1.0" encoding="UTF-8" standalone="no"?>
<!-- Created with Inkscape (http://www.inkscape.org/) -->

<svg
   xmlns:dc="http://purl.org/dc/elements/1.1/"
   xmlns:cc="http://creativecommons.org/ns#"
   xmlns:rdf="http://www.w3.org/1999/02/22-rdf-syntax-ns#"
   xmlns:svg="http://www.w3.org/2000/svg"
   xmlns="http://www.w3.org/2000/svg"
   xmlns:sodipodi="http://sodipodi.sourceforge.net/DTD/sodipodi-0.dtd"
   xmlns:inkscape="http://www.inkscape.org/namespaces/inkscape"
   version="1.1"
   id="svg2"
   xml:space="preserve"
   width="520.03296"
   height="486.61319"
   viewBox="0 0 520.03296 486.61319"
   sodipodi:docname="birthday-cake.svg"
   inkscape:version="0.92.1 r15371"><metadata
     id="metadata8"><rdf:RDF><cc:Work
         rdf:about=""><dc:format>image/svg+xml</dc:format><dc:type
           rdf:resource="http://purl.org/dc/dcmitype/StillImage" /><dc:title></dc:title></cc:Work></rdf:RDF></metadata><defs
     id="defs6"><clipPath
       clipPathUnits="userSpaceOnUse"
       id="clipPath20"><path
         d="M 0,720 H 720 V 0 H 0 Z"
         id="path18"
         inkscape:connector-curvature="0" /></clipPath><clipPath
       clipPathUnits="userSpaceOnUse"
       id="clipPath28"><path
         d="M 107.602,612.398 H 612.398 V 107.602 H 107.602 Z"
         id="path26"
         inkscape:connector-curvature="0" /></clipPath></defs><sodipodi:namedview
     pagecolor="#ffffff"
     bordercolor="#666666"
     borderopacity="1"
     objecttolerance="10"
     gridtolerance="10"
     guidetolerance="10"
     inkscape:pageopacity="0"
     inkscape:pageshadow="2"
     inkscape:window-width="1920"
     inkscape:window-height="1016"
     id="namedview4"
     showgrid="false"
     fit-margin-top="20"
     fit-margin-right="20"
     fit-margin-bottom="20"
     fit-margin-left="20"
     inkscape:zoom="0.69532167"
     inkscape:cx="276.28761"
     inkscape:cy="227.03522"
     inkscape:window-x="0"
     inkscape:window-y="27"
     inkscape:window-maximized="1"
     inkscape:current-layer="g10" /><g
     id="g10"
     inkscape:groupmode="layer"
     inkscape:label="birthday-cake-1674879"
     transform="matrix(1.3333333,0,0,-1.3333333,-219.98358,723.30678)"><g
       id="g38"
       transform="translate(519.2546,298.1832)"><path
         d="m 0,0 h -39.435 v 70.191 c 0,8.717 -7.132,15.849 -15.849,15.849 h -28.964 v 60.379 c 0,8.717 -7.132,15.85 -15.849,15.85 h -120.569 c -8.718,0 -15.85,-7.133 -15.85,-15.85 V 86.04 h -28.963 c -8.717,0 -15.849,-7.132 -15.849,-15.849 V 0 h -39.435 c -8.718,0 -15.85,-7.132 -15.85,-15.849 v -73.965 c 0,-8.717 7.132,-15.849 15.85,-15.849 H 0 c 8.717,0 15.85,7.132 15.85,15.849 v 73.965 C 15.85,-7.132 8.717,0 0,0"
         style="fill:#f4ccda;fill-opacity:1;fill-rule:nonzero;stroke:none"
         id="path40"
         inkscape:connector-curvature="0" /></g><g
       id="g42"
       transform="translate(516.828,301.7234)"><path
         d="m 0,0 h -315.842 c 0,0 -29.896,-0.566 -18.344,-36.226 0,0 5.892,-7.358 17.778,0 11.887,7.359 33.396,7.61 43.584,-3.27 10.189,-10.88 26.603,-5.534 34.528,0 7.924,5.535 29.999,6.667 35.659,-0.126 5.66,-6.792 25.471,-6.226 36.792,1.132 11.32,7.359 28.867,7.359 36.225,-1.132 7.359,-8.49 23.773,-14.15 40.188,-1.698 16.415,12.453 27.735,3.396 37.924,-2.83 10.188,-6.226 26.603,8.49 38.489,3.962 11.887,-4.528 24.666,-17.871 31.295,-8.369 C 24.905,-39.056 29.433,0 0,0"
         style="fill:#e75b63;fill-opacity:1;fill-rule:nonzero;stroke:none"
         id="path44"
         inkscape:connector-curvature="0" /></g><g
       id="g46"
       transform="translate(470.5927,386.393)"><path
         d="m 0,0 h -220.95 c 0,0 -20.915,-0.487 -12.833,-31.165 0,0 4.122,-6.33 12.437,0 8.315,6.33 23.362,6.547 30.489,-2.813 7.128,-9.361 18.611,-4.762 24.154,0 5.544,4.761 20.987,5.735 24.946,-0.109 3.96,-5.843 17.819,-5.356 25.738,0.974 7.92,6.331 20.195,6.331 25.342,-0.974 5.148,-7.304 16.631,-12.173 28.114,-1.46 11.483,10.712 19.402,2.921 26.53,-2.435 7.127,-5.357 18.61,7.304 26.926,3.408 8.315,-3.895 17.255,-15.374 21.892,-7.2 C 17.423,-33.6 20.59,0 0,0"
         style="fill:#f2727d;fill-opacity:1;fill-rule:nonzero;stroke:none"
         id="path48"
         inkscape:connector-curvature="0" /></g><g
       id="g50"
       transform="translate(292.6158,460.4517)"><path
         d="m 0,0 h 137.892 c 0,0 13.053,-0.441 8.009,-28.222 0,0 -2.572,-5.732 -7.762,0 -5.189,5.733 -14.58,5.929 -19.028,-2.548 -4.448,-8.476 -11.614,-4.311 -15.074,0 -3.46,4.312 -13.097,5.194 -15.568,-0.098 -2.472,-5.291 -11.121,-4.85 -16.063,0.882 -4.943,5.733 -12.603,5.733 -15.816,-0.882 -3.212,-6.614 -10.379,-11.024 -17.545,-1.322 -7.167,9.701 -12.109,2.645 -16.557,-2.205 -4.448,-4.851 -11.615,6.614 -16.804,3.086 -5.19,-3.527 -10.769,-13.922 -13.663,-6.52 C -10.873,-30.427 -12.85,0 0,0"
         style="fill:#f594a1;fill-opacity:1;fill-rule:nonzero;stroke:none"
         id="path52"
         inkscape:connector-curvature="0" /></g><path
       d="M 535.104,229.805 H 182.642 v 4.894 h 352.462 z"
       style="fill:#e75b63;fill-opacity:1;fill-rule:nonzero;stroke:none"
       id="path54"
       inkscape:connector-curvature="0" /><path
       d="M 479.82,328.546 H 237.927 v 2.69 H 479.82 Z"
       style="fill:#f2727d;fill-opacity:1;fill-rule:nonzero;stroke:none"
       id="path56"
       inkscape:connector-curvature="0" /><path
       d="M 479.82,318.759 H 237.927 v 2.69 H 479.82 Z"
       style="fill:#f2727d;fill-opacity:1;fill-rule:nonzero;stroke:none"
       id="path58"
       inkscape:connector-curvature="0" /><g
       id="g60"
       transform="translate(306.24,412.4976)"><path
         d="m 0,0 c 0,-2.402 -1.947,-4.35 -4.35,-4.35 -2.402,0 -4.35,1.948 -4.35,4.35 0,2.402 1.948,4.35 4.35,4.35 C -1.947,4.35 0,2.402 0,0"
         style="fill:#f594a1;fill-opacity:1;fill-rule:nonzero;stroke:none"
         id="path62"
         inkscape:connector-curvature="0" /></g><g
       id="g64"
       transform="translate(328.6415,396.4032)"><path
         d="m 0,0 c 0,-3.123 -2.532,-5.655 -5.655,-5.655 -3.123,0 -5.655,2.532 -5.655,5.655 0,3.123 2.532,5.655 5.655,5.655 C -2.532,5.655 0,3.123 0,0"
         style="fill:#f594a1;fill-opacity:1;fill-rule:nonzero;stroke:none"
         id="path66"
         inkscape:connector-curvature="0" /></g><g
       id="g68"
       transform="translate(362.7876,414.02)"><path
         d="m 0,0 c 0,-4.564 -3.7,-8.265 -8.265,-8.265 -4.564,0 -8.264,3.701 -8.264,8.265 0,4.564 3.7,8.265 8.264,8.265 C -3.7,8.265 0,4.564 0,0"
         style="fill:#f594a1;fill-opacity:1;fill-rule:nonzero;stroke:none"
         id="path70"
         inkscape:connector-curvature="0" /></g><g
       id="g72"
       transform="translate(380.1868,396.4032)"><path
         d="m 0,0 c 0,-2.402 -1.947,-4.35 -4.35,-4.35 -2.402,0 -4.35,1.948 -4.35,4.35 0,2.402 1.948,4.35 4.35,4.35 C -1.947,4.35 0,2.402 0,0"
         style="fill:#f594a1;fill-opacity:1;fill-rule:nonzero;stroke:none"
         id="path74"
         inkscape:connector-curvature="0" /></g><g
       id="g76"
       transform="translate(400.631,415.1075)"><path
         d="m 0,0 c 0,-3.844 -3.116,-6.96 -6.96,-6.96 -3.843,0 -6.959,3.116 -6.959,6.96 0,3.844 3.116,6.96 6.959,6.96 C -3.116,6.96 0,3.844 0,0"
         style="fill:#f594a1;fill-opacity:1;fill-rule:nonzero;stroke:none"
         id="path78"
         inkscape:connector-curvature="0" /></g><g
       id="g80"
       transform="translate(424.9899,395.3158)"><path
         d="m 0,0 c 0,-3.483 -2.824,-6.307 -6.307,-6.307 -3.484,0 -6.307,2.824 -6.307,6.307 0,3.483 2.823,6.307 6.307,6.307 C -2.824,6.307 0,3.483 0,0"
         style="fill:#f594a1;fill-opacity:1;fill-rule:nonzero;stroke:none"
         id="path82"
         inkscape:connector-curvature="0" /></g><g
       id="g84"
       transform="translate(429.7747,418.8048)"><path
         d="m 0,0 c 0,-2.643 -2.142,-4.785 -4.785,-4.785 -2.642,0 -4.785,2.142 -4.785,4.785 0,2.643 2.143,4.785 4.785,4.785 C -2.142,4.785 0,2.643 0,0"
         style="fill:#f594a1;fill-opacity:1;fill-rule:nonzero;stroke:none"
         id="path86"
         inkscape:connector-curvature="0" /></g><g
       id="g88"
       transform="translate(325.7054,416.8474)"><path
         d="m 0,0 c 0,-0.661 -0.536,-1.196 -1.196,-1.196 -0.661,0 -1.196,0.535 -1.196,1.196 0,0.661 0.535,1.196 1.196,1.196 C -0.536,1.196 0,0.661 0,0"
         style="fill:#f594a1;fill-opacity:1;fill-rule:nonzero;stroke:none"
         id="path90"
         inkscape:connector-curvature="0" /></g><g
       id="g92"
       transform="translate(293.2993,393.1409)"><path
         d="m 0,0 c 0,-0.901 -0.73,-1.631 -1.631,-1.631 -0.901,0 -1.631,0.73 -1.631,1.631 0,0.901 0.73,1.631 1.631,1.631 C -0.73,1.631 0,0.901 0,0"
         style="fill:#f594a1;fill-opacity:1;fill-rule:nonzero;stroke:none"
         id="path94"
         inkscape:connector-curvature="0" /></g><g
       id="g96"
       transform="translate(354.7404,392.0534)"><path
         d="m 0,0 c 0,-0.841 -0.682,-1.522 -1.522,-1.522 -0.841,0 -1.523,0.681 -1.523,1.522 0,0.841 0.682,1.522 1.523,1.522 C -0.682,1.522 0,0.841 0,0"
         style="fill:#f594a1;fill-opacity:1;fill-rule:nonzero;stroke:none"
         id="path98"
         inkscape:connector-curvature="0" /></g><g
       id="g100"
       transform="translate(322.5148,429.9427)"><path
         d="m 0,0 -18.271,-37.063 h 9.658 l 3.588,7.765 h 4.246 V -43.55 h 1.577 v 14.252 h 4.748 l 3.785,-7.765 h 9.657 z"
         style="fill:#4cbabc;fill-opacity:1;fill-rule:nonzero;stroke:none"
         id="path102"
         inkscape:connector-curvature="0" /></g><g
       id="g104"
       transform="translate(298.1583,395.6414)"><path
         d="m 0,0 -6.802,36.234 -8.594,-1.613 2.625,-13.981 -8.081,-1.517 -2.624,13.981 -8.53,-1.601 6.802,-36.234 8.53,1.601 -2.564,13.66 8.08,1.517 2.564,-13.66 4.467,0.838 1.635,-8.473 h 1.605 l -1.69,8.764 z"
         style="fill:#989cca;fill-opacity:1;fill-rule:nonzero;stroke:none"
         id="path106"
         inkscape:connector-curvature="0" /></g><g
       id="g108"
       transform="translate(374.7056,424.1673)"><path
         d="m 0,0 c -1.91,2.83 -4.621,4.618 -8.004,5.341 l -10.236,2.052 -7.02,-36.193 3.353,-0.65 -1.7,-8.308 h 1.61 l 1.638,8.008 3.683,-0.714 2.224,11.466 1.665,-0.323 c 3.459,-0.671 6.566,-0.077 9.395,1.834 2.83,1.91 4.606,4.556 5.29,8.08 C 2.556,-6.012 1.91,-2.83 0,0"
         style="fill:#fbb03f;fill-opacity:1;fill-rule:nonzero;stroke:none"
         id="path110"
         inkscape:connector-curvature="0" /></g><g
       id="g112"
       transform="translate(411.8551,423.9443)"><path
         d="m 0,0 c -0.831,3.357 -2.755,5.972 -5.679,7.736 -2.923,1.764 -6.134,2.246 -9.508,1.479 l -10.15,-2.445 8.857,-35.787 4.015,0.994 2.553,-9.528 h 1.633 l -2.655,9.907 2.941,0.728 -2.806,11.337 1.648,0.408 c 3.419,0.846 5.988,2.692 7.752,5.615 C 0.364,-6.632 0.863,-3.484 0,0"
         style="fill:#ee513f;fill-opacity:1;fill-rule:nonzero;stroke:none"
         id="path114"
         inkscape:connector-curvature="0" /></g><g
       id="g116"
       transform="translate(447.0039,430.2632)"><path
         d="m 0,0 -8.504,-10.472 -2.425,13.298 -9.413,2.433 4.89,-25.661 -3.316,-12.825 2.913,-0.753 -2.536,-9.89 h 1.628 l 2.435,9.495 3.962,-1.024 3.397,13.14 16.381,19.826 z"
         style="fill:#c49a6c;fill-opacity:1;fill-rule:nonzero;stroke:none"
         id="path118"
         inkscape:connector-curvature="0" /></g><g
       id="g120"
       transform="translate(254.4244,323.8343)"><path
         d="m 0,0 c -0.738,2.707 -2.351,4.905 -4.778,6.611 0.757,2.438 0.884,4.704 0.317,6.782 -0.806,2.958 -2.563,5.185 -5.206,6.696 -2.645,1.511 -5.437,1.833 -8.459,1.009 l -10.656,-2.835 9.692,-35.571 7.24,1.973 2.343,0.681 1.465,-7.457 h 1.647 l -1.556,7.92 c 3.088,0.953 5.379,2.718 6.919,5.321 C 0.525,-6.147 0.874,-3.211 0,0"
         style="fill:#4cbabc;fill-opacity:1;fill-rule:nonzero;stroke:none"
         id="path122"
         inkscape:connector-curvature="0" /></g><g
       id="g124"
       transform="translate(275.5556,342.9752)"><path
         d="m 0,0 -8.575,1.334 -5.669,-36.428 2.321,-0.361 -0.95,-5.797 h 1.638 l 0.909,5.548 4.658,-0.724 z"
         style="fill:#989cca;fill-opacity:1;fill-rule:nonzero;stroke:none"
         id="path126"
         inkscape:connector-curvature="0" /></g><g
       id="g128"
       transform="translate(300.6407,317.4721)"><path
         d="m 0,0 c 4.111,2.414 6.199,6.004 6.199,10.766 0,3.459 -1.24,6.461 -3.654,8.875 -2.414,2.414 -5.416,3.654 -8.874,3.719 l -10.375,0.066 v -36.867 h 5.082 v -2.308 h 1.616 v 2.308 h 1.98 v 9.983 l 5.938,-9.983 H 8.091 Z"
         style="fill:#f594a1;fill-opacity:1;fill-rule:nonzero;stroke:none"
         id="path130"
         inkscape:connector-curvature="0" /></g><g
       id="g132"
       transform="translate(332.9566,310.2732)"><path
         d="m 0,0 -6.91,27.329 6.58,1.663 -2.128,8.414 -21.255,-5.374 2.127,-8.414 6.263,1.584 6.909,-27.329 3.366,0.851 1.441,-7.274 h 1.648 l -1.52,7.671 z"
         style="fill:#c49a6c;fill-opacity:1;fill-rule:nonzero;stroke:none"
         id="path134"
         inkscape:connector-curvature="0" /></g><g
       id="g136"
       transform="translate(362.711,344.27)"><path
         d="m 0,0 -1.839,-14.105 -8.152,1.063 1.839,14.105 -8.606,1.122 -4.766,-36.558 8.606,-1.122 1.797,13.782 3.239,-0.422 -2.809,-20.412 h 1.632 l 2.78,20.203 3.31,-0.431 -1.796,-13.783 8.67,-1.129 4.765,36.557 z"
         style="fill:#fbb03f;fill-opacity:1;fill-rule:nonzero;stroke:none"
         id="path138"
         inkscape:connector-curvature="0" /></g><g
       id="g140"
       transform="translate(415.0537,327.1266)"><path
         d="m 0,0 c -1.046,5.048 -3.657,8.971 -7.886,11.693 -4.166,2.736 -8.804,3.574 -13.929,2.579 l -11.194,-2.252 7.478,-36.101 11.182,2.317 c 0.388,0.08 0.755,0.187 1.129,0.285 l 0.73,-3.924 h 1.644 l -0.818,4.399 c 3.816,1.33 6.853,3.677 9.085,7.076 C 0.221,-9.75 1.059,-5.111 0,0"
         style="fill:#00a650;fill-opacity:1;fill-rule:nonzero;stroke:none"
         id="path142"
         inkscape:connector-curvature="0" /></g><g
       id="g144"
       transform="translate(437.334,346.2338)"><path
         d="m 0,0 -18.271,-37.063 h 9.658 l 3.589,7.765 h 4.575 V -44.51 h 1.616 v 15.212 h 4.38 l 3.784,-7.765 h 9.657 z"
         style="fill:#ee2b7b;fill-opacity:1;fill-rule:nonzero;stroke:none"
         id="path146"
         inkscape:connector-curvature="0" /></g><g
       id="g148"
       transform="translate(477.1877,343.3983)"><path
         d="m 0,0 -6.379,-11.887 -4.886,12.603 -9.703,0.617 9.635,-24.281 -0.84,-13.22 3.436,-0.218 -0.39,-5.289 h 1.621 l 0.382,5.186 3.612,-0.23 0.861,13.545 12.354,22.557 z"
         style="fill:#989cca;fill-opacity:1;fill-rule:nonzero;stroke:none"
         id="path150"
         inkscape:connector-curvature="0" /></g><path
       d="m 365.075,460.452 h -10.151 v 50.295 h 10.151 z"
       style="fill:#e75b63;fill-opacity:1;fill-rule:nonzero;stroke:none"
       id="path152"
       inkscape:connector-curvature="0" /><g
       id="g154"
       transform="translate(354.9247,475.9056)"><path
         d="m 0,0 10.151,6.617 v 5.515 L 0,5.515 Z"
         style="fill:#e7e8e9;fill-opacity:1;fill-rule:nonzero;stroke:none"
         id="path156"
         inkscape:connector-curvature="0" /></g><g
       id="g158"
       transform="translate(354.9247,485.2862)"><path
         d="m 0,0 10.151,6.617 v 5.515 L 0,5.515 Z"
         style="fill:#e7e8e9;fill-opacity:1;fill-rule:nonzero;stroke:none"
         id="path160"
         inkscape:connector-curvature="0" /></g><g
       id="g162"
       transform="translate(354.9247,466.5249)"><path
         d="m 0,0 10.151,6.617 v 5.515 L 0,5.515 Z"
         style="fill:#e7e8e9;fill-opacity:1;fill-rule:nonzero;stroke:none"
         id="path164"
         inkscape:connector-curvature="0" /></g><g
       id="g166"
       transform="translate(354.9247,494.6669)"><path
         d="m 0,0 10.151,6.617 v 5.515 L 0,5.515 Z"
         style="fill:#e7e8e9;fill-opacity:1;fill-rule:nonzero;stroke:none"
         id="path168"
         inkscape:connector-curvature="0" /></g><g
       id="g170"
       transform="translate(354.9247,462.659)"><path
         d="M 0,0 V -1.496 H 10.151 V 6.617 Z"
         style="fill:#e7e8e9;fill-opacity:1;fill-rule:nonzero;stroke:none"
         id="path172"
         inkscape:connector-curvature="0" /></g><g
       id="g174"
       transform="translate(365.0753,510.6647)"><path
         d="M 0,0 V 0.082 H -10.151 V -6.617 Z"
         style="fill:#e7e8e9;fill-opacity:1;fill-rule:nonzero;stroke:none"
         id="path176"
         inkscape:connector-curvature="0" /></g><path
       d="m 360.674,510.746 h -1.349 v 2.58 h 1.349 z"
       style="fill:#e75b63;fill-opacity:1;fill-rule:nonzero;stroke:none"
       id="path178"
       inkscape:connector-curvature="0" /><g
       id="g180"
       transform="translate(358.7849,527.4801)"><path
         d="M 0,0 C 0,0 1.133,-4.809 -1.135,-7.344 -2.042,-8.358 -5.03,-14.667 1.215,-14.688 10.148,-14.716 2.232,-1.068 0,0"
         style="fill:#e75b63;fill-opacity:1;fill-rule:nonzero;stroke:none"
         id="path182"
         inkscape:connector-curvature="0" /></g></g></svg>